<svg xmlns="http://www.w3.org/2000/svg" xmlns:xlink="http://www.w3.org/1999/xlink"><symbol id="arrow-back" viewBox="0 0 16 16">
<path d="M2.66742 6.66668L2.19601 7.13808L1.72461 6.66668L2.19601 6.19527L2.66742 6.66668ZM14.0007 12C14.0007 12.3682 13.7023 12.6667 13.3341 12.6667C12.9659 12.6667 12.6674 12.3682 12.6674 12H14.0007ZM5.52934 10.4714L2.19601 7.13808L3.13882 6.19527L6.47216 9.52861L5.52934 10.4714ZM2.19601 6.19527L5.52934 2.86194L6.47216 3.80475L3.13882 7.13808L2.19601 6.19527ZM2.66742 6.00001H9.33408V7.33334H2.66742V6.00001ZM14.0007 10.6667V12H12.6674V10.6667H14.0007ZM9.33408 6.00001C11.9114 6.00001 14.0007 8.08934 14.0007 10.6667H12.6674C12.6674 8.82574 11.175 7.33334 9.33408 7.33334V6.00001Z"/>
</symbol><symbol id="arrow-next-small" viewBox="0 0 20 20">
<path d="M8.09311 15.2441C8.41852 15.5695 8.94611 15.5695 9.27161 15.2441L13.3445 11.1672C13.9948 10.5162 13.9945 9.46139 13.3439 8.81081L9.26861 4.73548C8.94311 4.41006 8.41552 4.41006 8.09002 4.73548C7.76461 5.06089 7.76461 5.58856 8.09002 5.91398L11.5781 9.40206C11.9035 9.72748 11.9035 10.2551 11.5781 10.5806L8.09311 14.0656C7.76761 14.391 7.76761 14.9186 8.09311 15.2441Z"/>
</symbol><symbol id="arrow-prev-small" viewBox="0 0 20 20">
<path d="M11.9069 4.75592C11.5815 4.43048 11.0539 4.43048 10.7284 4.75592L6.65554 8.83277C6.00522 9.48377 6.00548 10.5386 6.65612 11.1892L10.7314 15.2645C11.0569 15.5899 11.5845 15.5899 11.91 15.2645C12.2354 14.9391 12.2354 14.4114 11.91 14.086L8.42189 10.5979C8.09646 10.2725 8.09646 9.74494 8.42189 9.41944L11.9069 5.93443C12.2324 5.609 12.2324 5.08136 11.9069 4.75592Z"/>
</symbol><symbol id="check" viewBox="0 0 16 16">
<path d="M3.33398 9.33333L5.48938 10.9499C5.77517 11.1642 6.17913 11.1152 6.40535 10.8387L12.0007 4" fill="none" stroke-width="2" stroke-linecap="round"/>
</symbol><symbol id="graph" viewBox="0 0 16 16">
<mask id="mask0_12_127" style="mask-type:luminance" maskUnits="userSpaceOnUse" x="0" y="0" width="16" height="16">
<rect width="16" height="16" fill="white"/>
</mask>
<g mask="url(#mask0_12_127)">
<path d="M6.83558 3.92285L7.02118 6.68282L7.11332 8.07002C7.11432 8.21269 7.13665 8.35442 7.17978 8.49062C7.29105 8.75502 7.55878 8.92302 7.85005 8.91129L12.2882 8.62096C12.4804 8.61782 12.666 8.68969 12.8041 8.82082C12.9192 8.93009 12.9936 9.07302 13.017 9.22676L13.0249 9.32009C12.8412 11.8632 10.9734 13.9844 8.43558 14.532C5.89768 15.0795 3.29522 13.9228 2.04112 11.6899C1.67958 11.0412 1.45375 10.3282 1.3769 9.59262C1.3448 9.37489 1.33067 9.15496 1.33464 8.93496C1.33067 6.20844 3.2723 3.85126 5.9902 3.283C6.31732 3.23206 6.638 3.40524 6.76918 3.70364C6.80312 3.77275 6.82552 3.84676 6.83558 3.92285Z"/>
<path d="M14.6664 6.54145L14.6617 6.56317L14.6482 6.59477L14.6501 6.68152C14.6432 6.79638 14.5988 6.90692 14.5224 6.99625C14.4427 7.08925 14.3339 7.15258 14.2141 7.17718L14.141 7.18718L9.02051 7.51898C8.85017 7.53578 8.68057 7.48085 8.55397 7.36792C8.44837 7.27372 8.3809 7.14665 8.36184 7.00972L8.01817 1.89662C8.01217 1.87934 8.01217 1.8606 8.01817 1.8433C8.02284 1.70236 8.08491 1.56914 8.19044 1.4734C8.29591 1.37766 8.43617 1.32738 8.5797 1.3338C11.6196 1.41114 14.1746 3.59711 14.6664 6.54145Z" fill="#333333"/>
</g>
</symbol><symbol id="pen" viewBox="0 0 16 16">
<path d="M14 14.6666H2C1.72667 14.6666 1.5 14.44 1.5 14.1666C1.5 13.8933 1.72667 13.6666 2 13.6666H14C14.2733 13.6666 14.5 13.8933 14.5 14.1666C14.5 14.44 14.2733 14.6666 14 14.6666Z"/>
<path d="M12.6804 2.3211C11.387 1.02777 10.1204 0.994435 8.79371 2.3211L7.98704 3.12777C7.92038 3.19444 7.89371 3.3011 7.92037 3.39444C8.42704 5.1611 9.84038 6.57444 11.607 7.08109C11.6337 7.08776 11.6604 7.09442 11.687 7.09442C11.7604 7.09442 11.827 7.06775 11.8804 7.01442L12.6804 6.20777C13.3404 5.55443 13.6604 4.9211 13.6604 4.2811C13.667 3.6211 13.347 2.9811 12.6804 2.3211Z"/>
<path d="M10.4075 7.68721C10.2142 7.59388 10.0275 7.50055 9.84752 7.39388C9.70085 7.30721 9.56085 7.21388 9.42085 7.11388C9.30752 7.04055 9.17418 6.93388 9.04752 6.82721C9.03418 6.82055 8.98752 6.78055 8.93418 6.72721C8.71418 6.54053 8.46752 6.30053 8.24752 6.03387C8.22752 6.02053 8.19418 5.97387 8.14752 5.91387C8.08085 5.83387 7.96752 5.70053 7.86752 5.5472C7.78752 5.4472 7.69418 5.30053 7.60752 5.15387C7.50085 4.97387 7.40752 4.79387 7.31418 4.6072C7.30005 4.57694 7.28638 4.54683 7.27318 4.51689C7.17478 4.29468 6.88498 4.22971 6.71318 4.40155L2.8942 8.22055C2.80753 8.30721 2.72753 8.47388 2.70753 8.58721L2.34753 11.1405C2.28086 11.5939 2.40753 12.0205 2.68753 12.3072C2.92753 12.5405 3.26086 12.6672 3.62086 12.6672C3.70086 12.6672 3.78086 12.6605 3.86086 12.6472L6.42086 12.2872C6.54086 12.2672 6.70752 12.1872 6.78752 12.1005L10.6017 8.28635C10.7748 8.11328 10.7095 7.81635 10.4845 7.72028C10.4591 7.70948 10.4334 7.69841 10.4075 7.68721Z"/>
</symbol></svg>